<?xml version="1.0" encoding="UTF-8"?>
<svg width="104px" height="148px" viewBox="0 0 104 148" version="1.1" xmlns="http://www.w3.org/2000/svg" xmlns:xlink="http://www.w3.org/1999/xlink">
    <!-- Generator: Sketch 52.6 (67491) - http://www.bohemiancoding.com/sketch -->
    <title>lucera_bulb</title>
    <desc>Created with Sketch.</desc>
    <g id="Assets" stroke="none" stroke-width="1" fill="none" fill-rule="evenodd">
        <g id="fireColor.svg" transform="translate(-1449.000000, -484.000000)">
            <g id="lucera_bulb" transform="translate(1451.000000, 486.000000)">
                <path d="M73.0052619,36.2815888 C73.0052619,16.0289364 56.6624773,0 36.5026311,0 C16.3427845,0 -2.60917512e-06,16.2438206 0,36.2815888 C2.38454437e-06,54.5942527 17.7275656,87.2036438 17.7275656,87.2036438 C18.6888195,89.0414038 21.1612005,90.5074024 23.2438198,90.4781273 L48.4677128,90.1235591 C50.553002,90.0942463 51.6171298,91.6360129 50.8477453,93.5591019 L51.0381026,93.0833011 C50.267269,95.0100116 47.9535801,96.5830476 45.8657087,96.596806 L26.2576616,96.7260163 C24.1718609,96.7397613 23.1930959,98.2753922 24.0734639,100.160087 L23.9014225,99.7917803 C24.7809241,101.67462 27.1850152,103.18327 29.2725774,103.161429 L43.7326844,103.010139 C45.81959,102.988305 47.0071685,104.574094 46.3847278,106.553651 L46.7838923,105.284182 C46.16167,107.263044 43.9678023,108.845141 41.8773782,108.817811 L31.8173787,108.686287 C29.7298082,108.658995 28.9162126,110.07251 30.0025034,111.847288 L29.5547267,111.115712 C30.6399693,112.888778 33.2098144,114.317169 35.2998727,114.306086 L41.910981,114.27103 C43.339998,114.263453 44.3667796,115.402072 44.2044672,116.81329 L44.239143,116.511803 C44.0881785,117.824357 42.9000473,119.026887 41.5774672,119.208905 C41.5774672,119.208905 -51.4513274,130.61282 100.353265,141.439707" id="Oval-9" stroke="#1E3055" stroke-width="3.90000015"></path>
                <rect id="Rectangle-16" fill="#4892E1" x="22.8672566" y="28.4221311" width="25.8761062" height="6.88114754"></rect>
                <rect id="Rectangle-37" fill="#4892E1" x="22.8672566" y="43.6803279" width="25.8761062" height="6.88114754"></rect>
                <rect id="Rectangle-38" fill="#4892E1" x="22.8672566" y="59.2377049" width="25.8761062" height="6.88114754"></rect>
                <path d="M35.919158,94.4865002 C38.4117707,94.4865002 40.4324323,92.4772864 40.4324323,89.9987953 C40.4324323,87.5203045 38.4117707,85.5110903 35.919158,85.5110903 C33.4265456,85.5110903 31.4058836,87.5203045 31.4058836,89.9987953 C31.4058836,92.4772864 33.4265456,94.4865002 35.919158,94.4865002 Z" id="Oval-24" fill="#4892E1"></path>
                <ellipse id="Oval-23" fill="#4892E1" cx="10.7261421" cy="72.9971324" rx="4.51327434" ry="4.48770492"></ellipse>
                <path d="M11.027027,14.8749018 C13.5196396,14.8749018 15.5403013,12.8656879 15.5403013,10.3871969 C15.5403013,7.90870589 13.5196396,5.89949195 11.027027,5.89949195 C8.53441443,5.89949195 6.51375268,7.90870589 6.51375268,10.3871969 C6.51375268,12.8656879 8.53441443,14.8749018 11.027027,14.8749018 Z" id="Oval-22" fill="#4892E1"></path>
                <ellipse id="Oval-21" fill="#2266BF" cx="72.7734992" cy="34.7842535" rx="2.78115283" ry="2.76431153"></ellipse>
                <ellipse id="Oval-22" fill="#4892E1" cx="72.8141593" cy="35.0040984" rx="4.51327434" ry="4.48770492"></ellipse>
                <ellipse id="Oval-25" fill="#4892E1" cx="97.3403493" cy="141.368918" rx="4.51327434" ry="4.48770492"></ellipse>
                <ellipse id="Oval-20" fill="#4892E1" cx="24.4570677" cy="122.323653" rx="4.51327434" ry="4.48770492"></ellipse>
            </g>
        </g>
    </g>
</svg>