<?xml version="1.0" encoding="UTF-8"?>
<svg width="849px" height="767px" viewBox="0 0 849 767" version="1.1" xmlns="http://www.w3.org/2000/svg" xmlns:xlink="http://www.w3.org/1999/xlink">
    <!-- Generator: Sketch 52.6 (67491) - http://www.bohemiancoding.com/sketch -->
    <title>Group-5</title>
    <desc>Created with Sketch.</desc>
    <g id="Assets" stroke="none" stroke-width="1" fill="none" fill-rule="evenodd" stroke-opacity="0">
        <g id="fireColor.svg" transform="translate(-58.000000, -62.000000)" stroke="#979797">
            <g id="Group-5" style="mix-blend-mode: multiply;" transform="translate(482.500000, 445.500000) rotate(-360.000000) translate(-482.500000, -445.500000) translate(58.000000, 62.000000)">
                <path d="M849,640.704921 C836.832135,640.704921 822.542941,640.704923 726.676279,640.704921 C702.000539,640.704923 673.761239,656.168351 645.879145,696.930694 C617.997052,737.693036 602.923045,731.919911 555.780551,737.693039 C514.151616,737.69304 132.73142,767 132.73142,767 C132.73142,767 120.940163,765.93099 131.182745,759.677727 C141.425327,753.424462 525.783667,682.915569 547.310075,674.667268 C568.836484,666.418969 575.27831,670.375167 617.997054,613.187584 C660.7158,556 766.376798,556 766.376798,556 L849,556 L849,640.704921 Z" id="Path-9" fill="#EC5C1E"></path>
                <path d="M434.715689,150.200158 C394.082554,102.134329 361.076706,65.4004685 335.698146,39.9985775 C327.884538,32.9391331 227.634598,-62.0186944 325.874187,68.268424 C424.113776,198.555542 638.598485,468.839824 735.690608,497.317735 C796.040162,507.447672 833.809959,512.335794 849,511.982101 L849,378.007611 C634.740289,378.007611 527.652982,266.698809 434.715689,150.200158 Z" id="Path-8" fill-opacity="0.569999993" fill="#4374C5" style="mix-blend-mode: darken;"></path>
                <path d="M849,419.44898 C714.546784,411.35733 611.471016,373.642947 539.772695,306.305831 C432.225215,205.300157 345.214063,181.691309 263.635611,177 C245.806205,181.691309 263.635612,188.030515 272.322547,188.030516 C272.322547,188.030516 385.875468,206.844677 453.123408,300.764611 C623.46257,538.66398 732.342197,526.106066 849,537 L849,419.44898 Z" id="Path-7" fill-opacity="0.569999993" fill="#EC5C1E" style="mix-blend-mode: multiply;"></path>
                <path d="M849,482.23661 C813.292847,487.069726 772.038931,487.069726 725.238251,482.23661 C681.041356,477.672387 637.137479,474.424551 594.29811,434.197962 C516.740159,372.381726 507.929698,326.683792 426.467829,322 C409.25283,322 412.930796,333.012839 427.500995,333.012839 C427.500995,333.012839 475.45622,333.012839 518.974302,399.947337 C585.537029,502.326449 695.545595,550.510679 849,544.500027 L849,482.23661 Z" id="Path-6" fill-opacity="0.569999993" fill="#101B2D" style="mix-blend-mode: multiply;"></path>
                <path d="M558.807045,646.853007 C531.022383,660.269254 560.167158,606.778162 566.370356,597.829459 C594.486599,557.151777 612.774729,525.987625 686.684584,519.389715 C735.95782,514.991108 790.062959,511.194536 849,508 L848.872242,587.406175 L849,613.645089 C706.975837,605.134823 610.244853,616.204129 558.807045,646.853007 Z" id="Path-5" fill-opacity="0.939999998" fill="#ED599F" style="mix-blend-mode: multiply;"></path>
                <path d="M849,538 C849,538 319.975476,538 247.672995,538 C214.761061,538 121.881207,527.226204 99,496.520295 C99.0000001,489.411598 103.678832,492.645508 103.678832,492.645508 C103.678832,492.645508 156.89535,516.354949 186.40639,511.298825 C127.494025,483.07963 108.325048,466.729922 108.325048,466.729922 C108.325048,466.729922 99.0000001,451.416838 116.615296,459.207757 C116.615296,459.207757 173.935435,492.645508 214.761061,496.18952 C260.781433,504.884162 385.410926,482.491915 543.035375,459.207757 C700.659823,435.9236 849,415 849,415 L849,538 Z" id="Path-4" fill="#FFC020" style="mix-blend-mode: multiply;"></path>
                <path d="M849,318.872727 C837.244042,318.872727 790.035311,320.578347 749.001482,306.045176 C708.589254,291.732159 674.566174,231.080122 664.732351,193.367707 C661.711952,181.784569 651.876512,185.475479 650.019818,193.367705 C648.163123,201.259931 599.451473,389.000014 849,389 L849,318.872727 Z" id="Path-3" fill-opacity="0.569999993" fill="#ED599F" style="mix-blend-mode: multiply;"></path>
                <path d="M849,356.569767 C753.370925,369.567488 661.560074,324.06812 573.567447,220.071664 C526.671372,175.629871 561.33152,227.143216 561.33152,227.143216 C561.33152,227.143216 644.995741,366.184744 849,413 L849,356.569767 Z" id="Path-2" fill-opacity="0.569999993" fill="#101B2D" style="mix-blend-mode: multiply;"></path>
                <path d="M849,580 L5.61649233,547.956103 C5.61649233,547.956103 -7.02061541,543.22283 5.61649233,537.65392 L849,484 L849,580 Z" id="Path-1" fill="#EC5C1E" style="mix-blend-mode: multiply;"></path>
            </g>
        </g>
    </g>
</svg>