<?xml version="1.0" encoding="UTF-8"?>
<svg width="853px" height="770px" viewBox="0 0 853 770" version="1.1" xmlns="http://www.w3.org/2000/svg" xmlns:xlink="http://www.w3.org/1999/xlink">
    <!-- Generator: Sketch 52.6 (67491) - http://www.bohemiancoding.com/sketch -->
    <title>Group Copy</title>
    <desc>Created with Sketch.</desc>
    <defs>
        <path d="M849.5,640.704921 C837.332135,640.704921 823.042941,640.704923 727.176279,640.704921 C702.500539,640.704923 674.261239,656.168351 646.379145,696.930694 C618.497052,737.693036 603.423045,731.919911 556.280551,737.693039 C514.651616,737.69304 133.23142,767 133.23142,767 C133.23142,767 121.440163,765.93099 131.682745,759.677727 C141.925327,753.424462 526.283667,682.915569 547.810075,674.667268 C569.336484,666.418969 575.77831,670.375167 618.497054,613.187584 C661.2158,556 766.876798,556 766.876798,556 L849.5,556 L849.5,640.704921 Z" id="path-1"></path>
        <path d="M434.715689,150.700158 C394.082554,102.634329 361.076706,65.9004685 335.698146,40.4985775 C327.884538,33.4391331 227.634598,-61.5186944 325.874187,68.768424 C424.113776,199.055542 638.598485,469.339824 735.690608,497.817735 C796.040162,507.947672 833.809959,512.835794 849,512.482101 L849,378.507611 C634.740289,378.507611 527.652982,267.198809 434.715689,150.700158 Z" id="path-2"></path>
        <path d="M849.5,419.44898 C715.046784,411.35733 611.971016,373.642947 540.272695,306.305831 C432.725215,205.300157 345.714063,181.691309 264.135611,177 C246.306205,181.691309 264.135612,188.030515 272.822547,188.030516 C272.822547,188.030516 386.375468,206.844677 453.623408,300.764611 C623.96257,538.66398 732.842197,526.106066 849.5,537 L849.5,419.44898 Z" id="path-3"></path>
        <path d="M848.5,482.23661 C812.792847,487.069726 771.538931,487.069726 724.738251,482.23661 C680.541356,477.672387 636.637479,474.424551 593.79811,434.197962 C516.240159,372.381726 507.429698,326.683792 425.967829,322 C408.75283,322 412.430796,333.012839 427.000995,333.012839 C427.000995,333.012839 474.95622,333.012839 518.474302,399.947337 C585.037029,502.326449 695.045595,550.510679 848.5,544.500027 L848.5,482.23661 Z" id="path-4"></path>
        <path d="M559.307045,646.853007 C531.522383,660.269254 560.667158,606.778162 566.870356,597.829459 C594.986599,557.151777 613.274729,525.987625 687.184584,519.389715 C736.45782,514.991108 790.562959,511.194536 849.5,508 L849.372242,587.406175 L849.5,613.645089 C707.475837,605.134823 610.744853,616.204129 559.307045,646.853007 Z" id="path-5"></path>
        <path d="M849.5,538 C849.5,538 320.475476,538 248.172995,538 C215.261061,538 122.381207,527.226204 99.5,496.520295 C99.5000001,489.411598 104.178832,492.645508 104.178832,492.645508 C104.178832,492.645508 157.39535,516.354949 186.90639,511.298825 C127.994025,483.07963 108.825048,466.729922 108.825048,466.729922 C108.825048,466.729922 99.5000001,451.416838 117.115296,459.207757 C117.115296,459.207757 174.435435,492.645508 215.261061,496.18952 C261.281433,504.884162 385.910926,482.491915 543.535375,459.207757 C701.159823,435.9236 849.5,415 849.5,415 L849.5,538 Z" id="path-6"></path>
        <path d="M849.5,318.872727 C837.744042,318.872727 790.535311,320.578347 749.501482,306.045176 C709.089254,291.732159 675.066174,231.080122 665.232351,193.367707 C662.211952,181.784569 652.376512,185.475479 650.519818,193.367705 C648.663123,201.259931 599.951473,389.000014 849.5,389 L849.5,318.872727 Z" id="path-7"></path>
        <path d="M848.5,356.569767 C752.870925,369.567488 661.060074,324.06812 573.067447,220.071664 C526.171372,175.629871 560.83152,227.143216 560.83152,227.143216 C560.83152,227.143216 644.495741,366.184744 848.5,413 L848.5,356.569767 Z" id="path-8"></path>
        <path d="M849.5,580 L6.11649233,547.956103 C6.11649233,547.956103 -6.52061541,543.22283 6.11649233,537.65392 L849.5,484 L849.5,580 Z" id="path-9"></path>
    </defs>
    <g id="Assets" stroke="none" stroke-width="1" fill="none" fill-rule="evenodd">
        <g id="fireColor.svg" transform="translate(-821.000000, -911.000000)">
            <g id="Group-Copy" transform="translate(822.000000, 912.000000)">
                <g id="Path-2" transform="translate(488.500000, 661.500000) rotate(-360.000000) translate(-488.500000, -661.500000) ">
                    <use fill="#FFFFFF" fill-rule="evenodd" style="mix-blend-mode: multiply;" xlink:href="#path-1"></use>
                    <use stroke="#D8D8D8" stroke-width="3" xlink:href="#path-1"></use>
                </g>
                <g id="Path-6" transform="translate(566.000000, 256.500000) rotate(-360.000000) translate(-566.000000, -256.500000) ">
                    <use fill="#FFFFFF" fill-rule="evenodd" style="mix-blend-mode: multiply;" xlink:href="#path-2"></use>
                    <use stroke="#D8D8D8" stroke-width="3" xlink:href="#path-2"></use>
                </g>
                <g id="Path-7" transform="translate(553.000000, 357.000000) rotate(-360.000000) translate(-553.000000, -357.000000) ">
                    <use fill="#FFFFFF" fill-rule="evenodd" style="mix-blend-mode: multiply;" xlink:href="#path-3"></use>
                    <use stroke="#D8D8D8" stroke-width="3" xlink:href="#path-3"></use>
                </g>
                <g id="Path-7-Copy" transform="translate(631.500000, 433.500000) rotate(-360.000000) translate(-631.500000, -433.500000) ">
                    <use fill="#FFFFFF" fill-rule="evenodd" style="mix-blend-mode: multiply;" xlink:href="#path-4"></use>
                    <use stroke="#D8D8D8" stroke-width="3" xlink:href="#path-4"></use>
                </g>
                <g id="Path-2" transform="translate(698.500000, 578.500000) rotate(-360.000000) translate(-698.500000, -578.500000) ">
                    <use fill="#FFFFFF" fill-rule="evenodd" style="mix-blend-mode: multiply;" xlink:href="#path-5"></use>
                    <use stroke="#D8D8D8" stroke-width="3" xlink:href="#path-5"></use>
                </g>
                <g id="Path-4" transform="translate(474.500000, 476.500000) rotate(-360.000000) translate(-474.500000, -476.500000) ">
                    <use fill="#FFFFFF" fill-rule="evenodd" style="mix-blend-mode: multiply;" xlink:href="#path-6"></use>
                    <use stroke="#D8D8D8" stroke-width="3" xlink:href="#path-6"></use>
                </g>
                <g id="Path-5" transform="translate(747.500000, 287.500000) rotate(-360.000000) translate(-747.500000, -287.500000) ">
                    <use fill="#FFFFFF" fill-rule="evenodd" style="mix-blend-mode: multiply;" xlink:href="#path-7"></use>
                    <use stroke="#D8D8D8" stroke-width="3" xlink:href="#path-7"></use>
                </g>
                <g id="Path-5-Copy" transform="translate(698.500000, 307.500000) rotate(-360.000000) translate(-698.500000, -307.500000) ">
                    <use fill="#FFFFFF" fill-rule="evenodd" style="mix-blend-mode: multiply;" xlink:href="#path-8"></use>
                    <use stroke="#D8D8D8" stroke-width="3" xlink:href="#path-8"></use>
                </g>
                <g id="Path-3" transform="translate(425.000000, 532.000000) rotate(-360.000000) translate(-425.000000, -532.000000) ">
                    <use fill="#FFFFFF" fill-rule="evenodd" style="mix-blend-mode: multiply;" xlink:href="#path-9"></use>
                    <use stroke="#D8D8D8" stroke-width="3" xlink:href="#path-9"></use>
                </g>
            </g>
        </g>
    </g>
</svg>